<?xml version="1.0" encoding="UTF-8" standalone="no"?>
<svg
   width="64px"
   height="64px"
   viewBox="0 0 998 250"
   version="1.1"
   id="svg126"
   xmlns="http://www.w3.org/2000/svg"
   xmlns:svg="http://www.w3.org/2000/svg">
  <defs
     id="defs126" />
  <g
     id="cont1">
    <path
       style="fill:#80ff80;stroke-width:0.256088"
       d="M 310.50418,9.2087795 H 560.5513 v -0.49938 h 4.20248 V 71.130919 h -4.20248 v -0.49937 H 310.76683 v 0.49937 h -4.20247 V 8.7093995 h 4.20247 z"
       id="path1" />
    <path
       style="fill:#80ff80;stroke-width:0.256088"
       d="M 310.50418,47.660429 560.5513,21.942769 v 48.68878 H 310.50418 Z"
       id="path2" />
    <path
       style="fill:#80ff80;stroke-width:0.256088"
       d="M 310.50418,53.902579 560.5513,28.184919 v 42.44663 H 310.50418 Z"
       id="path3" />
    <path
       style="fill:#80ff80;stroke-width:0.256088"
       d="M 310.50418,59.145989 560.5513,33.428329 v 37.20322 H 310.50418 Z"
       id="path4" />
    <path
       style="fill:#80ff80;stroke-width:0.256088"
       d="m 553.98494,12.454699 h 5.25309 v 52.43407 h -5.25309 z"
       id="path5" />
    <path
       style="fill:#80ff80;stroke-width:0.256088"
       d="m 545.84265,12.454699 h 5.51575 v 52.43407 h -5.51575 z"
       id="path6" />
    <path
       style="fill:#80ff80;stroke-width:0.256088"
       d="m 537.70036,12.454699 h 5.51575 v 52.43407 h -5.51575 z"
       id="path7" />
    <path
       style="fill:#80ff80;stroke-width:0.256088"
       d="m 529.82072,12.454699 h 5.25309 v 52.43407 h -5.25309 z"
       id="path8" />
    <path
       style="fill:#80ff80;stroke-width:0.256088"
       d="m 521.67843,12.454699 h 5.25309 v 52.43407 h -5.25309 z"
       id="path9" />
    <path
       style="fill:#80ff80;stroke-width:0.256088"
       d="m 513.53614,12.454699 h 5.51575 v 52.43407 h -5.51575 z"
       id="path10" />
    <path
       style="fill:#80ff80;stroke-width:0.256088"
       d="m 505.39385,12.454699 h 5.51575 v 52.43407 h -5.51575 z"
       id="path11" />
    <path
       style="fill:#80ff80;stroke-width:0.256088"
       d="m 497.51422,12.454699 h 5.25309 v 52.43407 h -5.25309 z"
       id="path12" />
    <path
       style="fill:#80ff80;stroke-width:0.256088"
       d="m 489.37192,12.454699 h 5.2531 v 52.43407 h -5.2531 z"
       id="path13" />
    <path
       style="fill:#80ff80;stroke-width:0.256088"
       d="m 481.22963,12.454699 h 5.51575 v 52.43407 h -5.51575 z"
       id="path14" />
    <path
       style="fill:#80ff80;stroke-width:0.256088"
       d="m 473.08734,12.454699 h 5.51575 v 52.43407 h -5.51575 z"
       id="path15" />
    <path
       style="fill:#80ff80;stroke-width:0.256088"
       d="m 465.20771,12.454699 h 5.25309 v 52.43407 h -5.25309 z"
       id="path16" />
    <path
       style="fill:#80ff80;stroke-width:0.256088"
       d="m 457.06542,12.454699 h 5.25309 v 52.43407 h -5.25309 z"
       id="path17" />
    <path
       style="fill:#80ff80;stroke-width:0.256088"
       d="m 448.92313,12.454699 h 5.51574 v 52.43407 h -5.51574 z"
       id="path18" />
    <path
       style="fill:#80ff80;stroke-width:0.256088"
       d="m 440.78083,12.454699 h 5.51575 v 52.43407 h -5.51575 z"
       id="path19" />
    <path
       style="fill:#80ff80;stroke-width:0.256088"
       d="m 432.9012,12.454699 h 5.25309 v 52.43407 h -5.25309 z"
       id="path20" />
    <path
       style="fill:#80ff80;stroke-width:0.256088"
       d="m 424.75891,12.454699 h 5.25309 v 52.43407 h -5.25309 z"
       id="path21" />
    <path
       style="fill:#80ff80;stroke-width:0.256088"
       d="m 416.61662,12.454699 h 5.25309 v 52.43407 h -5.25309 z"
       id="path22" />
    <path
       style="fill:#80ff80;stroke-width:0.256088"
       d="m 408.47433,12.454699 h 5.51574 v 52.43407 h -5.51574 z"
       id="path23" />
    <path
       style="fill:#80ff80;stroke-width:0.256088"
       d="m 400.33203,12.454699 h 5.51575 v 52.43407 h -5.51575 z"
       id="path24" />
    <path
       style="fill:#80ff80;stroke-width:0.256088"
       d="m 392.4524,12.454699 h 5.25309 v 52.43407 h -5.25309 z"
       id="path25" />
    <path
       style="fill:#80ff80;stroke-width:0.256088"
       d="m 384.3101,12.454699 h 5.2531 v 52.43407 h -5.2531 z"
       id="path26" />
    <path
       style="fill:#80ff80;stroke-width:0.256088"
       d="m 376.16781,12.454699 h 5.51575 v 52.43407 h -5.51575 z"
       id="path27" />
    <path
       style="fill:#80ff80;stroke-width:0.256088"
       d="m 368.02552,12.454699 h 5.51575 v 52.43407 h -5.51575 z"
       id="path28" />
    <path
       style="fill:#80ff80;stroke-width:0.256088"
       d="m 360.14589,12.454699 h 5.25309 v 52.43407 h -5.25309 z"
       id="path29" />
    <path
       style="fill:#80ff80;stroke-width:0.256088"
       d="m 352.0036,12.454699 h 5.25309 v 52.43407 h -5.25309 z"
       id="path30" />
    <path
       style="fill:#80ff80;stroke-width:0.256088"
       d="m 343.86131,12.454699 h 5.51574 v 52.43407 h -5.51574 z"
       id="path31" />
    <path
       style="fill:#80ff80;stroke-width:0.256088"
       d="m 335.71901,12.454699 h 5.51575 v 52.43407 h -5.51575 z"
       id="path32" />
    <path
       style="fill:#80ff80;stroke-width:0.256088"
       d="m 327.83938,12.454699 h 5.25309 v 52.43407 h -5.25309 z"
       id="path33" />
    <path
       style="fill:#80ff80;stroke-width:0.256088"
       d="m 319.69709,12.454699 h 5.51574 v 52.43407 h -5.51574 z"
       id="path34" />
    <path
       style="fill:#80ff80;stroke-width:0.256088"
       d="m 311.5548,12.454699 h 5.51574 v 52.43407 h -5.51574 z"
       id="path35" />
    <path
       style="fill:none;stroke:#4c4c4c;stroke-width:0.512176"
       d="M 310.50418,9.2087795 H 560.5513 v -0.49938 h 4.20248 V 71.130919 h -4.20248 v -0.49937 H 310.50418 v 0.49937 h -4.20247 V 8.7093995 h 4.20247 v 0.49938"
       id="path36" />
    <path
       style="fill:none;stroke:#4c4c4c;stroke-width:0.512176"
       d="M 310.50418,70.631549 V 9.2087795"
       id="path37" />
    <path
       style="fill:none;stroke:#4c4c4c;stroke-width:0.512176"
       d="M 560.5513,70.631549 V 9.2087795"
       id="path38" />
    <path
       style="fill:#80ff80;stroke-width:0.256088"
       d="m 551.3584,20.194959 h 2.62654 v 2.49686 h -2.62654 z"
       id="path39" />
    <path
       style="fill:#80ff80;stroke-width:0.256088"
       d="m 543.21611,24.689309 h 2.10123 v 2.49686 h -2.10123 z"
       id="path40" />
    <path
       style="fill:#80ff80;stroke-width:0.256088"
       d="m 543.21611,20.194959 h 2.62654 v 2.49686 h -2.62654 z"
       id="path41" />
    <path
       style="fill:#80ff80;stroke-width:0.256088"
       d="m 535.07381,20.194959 h 2.62655 v 2.49686 h -2.62655 z"
       id="path42" />
    <path
       style="fill:#80ff80;stroke-width:0.256088"
       d="m 526.93152,20.194959 h 2.8892 v 2.49686 h -2.8892 z"
       id="path43" />
    <path
       style="fill:#80ff80;stroke-width:0.256088"
       d="m 553.98494,20.194959 h 2.62655 v 2.49686 h -2.62655 z"
       id="path44" />
    <path
       style="fill:#80ff80;stroke-width:0.256088"
       d="m 545.84265,20.194959 h 2.62655 v 2.49686 h -2.62655 z"
       id="path45" />
    <path
       style="fill:#80ff80;stroke-width:0.256088"
       d="m 537.70036,20.194959 h 5.51575 v 2.49686 h -5.51575 z"
       id="path46" />
    <path
       style="fill:#80ff80;stroke-width:0.256088"
       d="m 529.82072,20.194959 h 5.25309 v 2.49686 h -5.25309 z"
       id="path47" />
    <path
       style="fill:#80ff80;stroke-width:0.256088"
       d="m 538.48832,24.439629 h 4.72779 v 2.74654 h -4.72779 z"
       id="path48" />
    <path
       style="fill:#80ff80;stroke-width:0.256088"
       d="m 566.59236,11.206259 v 58.17686 h -1.83858 v -58.17686 z"
       id="path49" />
    <path
       style="fill:#80ff80;stroke-width:0.256088"
       d="m 566.59236,11.206259 v 58.17686 h -1.83858 v -58.17686 z"
       id="path50" />
    <path
       style="fill:#80ff80;stroke-width:0.256088"
       d="m 566.3297,11.206259 v 58.17686 h -1.31327 v -58.17686 z"
       id="path51" />
    <path
       style="fill:#80ff80;stroke-width:0.256088"
       d="m 566.06705,11.206259 v 58.17686 h -0.78796 v -58.17686 z"
       id="path52" />
    <path
       style="fill:#80ff80;stroke-width:0.256088"
       d="m 566.06705,11.206259 v 58.17686 h -0.52531 v -58.17686 z"
       id="path53" />
    <path
       style="fill:#80ff80;stroke-width:0.256088"
       d="m 565.8044,11.206259 v 58.17686 h -0.26266 v -58.17686 z"
       id="path54" />
    <path
       style="fill:none;stroke:#4c4c4c;stroke-width:0.512176"
       d="m 566.59236,11.206259 v 58.17686 h -1.83858 v -58.17686 h 1.83858"
       id="path55" />
    <path
       style="fill:#80ff80;stroke-width:0.256088"
       d="m 306.30171,11.206259 v 58.17686 h -1.83859 v -58.17686 z"
       id="path56" />
    <path
       style="fill:#80ff80;stroke-width:0.256088"
       d="m 306.30171,11.206259 v 58.17686 h -1.83859 v -58.17686 z"
       id="path57" />
    <path
       style="fill:#80ff80;stroke-width:0.256088"
       d="m 306.03905,11.206259 v 58.17686 h -1.31327 v -58.17686 z"
       id="path58" />
    <path
       style="fill:#80ff80;stroke-width:0.256088"
       d="m 305.7764,11.206259 v 58.17686 h -0.78797 v -58.17686 z"
       id="path59" />
    <path
       style="fill:#80ff80;stroke-width:0.256088"
       d="m 305.51374,11.206259 v 58.17686 h -0.52531 v -58.17686 z"
       id="path60" />
    <path
       style="fill:#80ff80;stroke-width:0.256088"
       d="m 305.51374,11.206259 v 58.17686 h -0.26265 v -58.17686 z"
       id="path61" />
    <path
       style="fill:none;stroke:#4c4c4c;stroke-width:0.512176"
       d="m 306.30171,11.206259 v 58.17686 h -1.83859 v -58.17686 h 1.83859"
       id="path62" />
    <path
       style="fill:#80ff80;stroke-width:0.256088"
       d="M 310.50418,65.388139 H 560.5513 v 1.99749 H 310.50418 Z"
       id="path63" />
    <path
       style="fill:#80ff80;stroke-width:0.256088"
       d="M 310.50418,70.631549 H 560.5513 v 0.49937 H 310.50418 Z"
       id="path64" />
    <path
       style="fill:#80ff80;stroke-width:0.256088"
       d="m 424.75891,12.454699 h 5.25309 v 0.49937 h -5.25309 z"
       id="path65" />
    <path
       style="fill:#80ff80;stroke-width:0.256088"
       d="m 416.61662,12.454699 h 5.25309 v 0.49937 h -5.25309 z"
       id="path66" />
    <path
       style="fill:#80ff80;stroke-width:0.256088"
       d="m 408.47433,12.454699 h 5.51574 v 0.49937 h -5.51574 z"
       id="path67" />
    <path
       style="fill:#80ff80;stroke-width:0.256088"
       d="m 400.33203,12.454699 h 5.51575 v 0.49937 h -5.51575 z"
       id="path68" />
    <path
       style="fill:#80ff80;stroke-width:0.256088"
       d="m 392.4524,12.454699 h 5.25309 v 0.49937 h -5.25309 z"
       id="path69" />
    <path
       style="fill:#80ff80;stroke-width:0.256088"
       d="m 384.3101,12.454699 h 5.2531 v 0.49937 h -5.2531 z"
       id="path70" />
    <path
       style="fill:#80ff80;stroke-width:0.256088"
       d="m 376.16781,12.454699 h 5.51575 v 0.49937 h -5.51575 z"
       id="path71" />
    <path
       style="fill:#80ff80;stroke-width:0.256088"
       d="m 368.02552,12.454699 h 5.51575 v 0.49937 h -5.51575 z"
       id="path72" />
    <path
       style="fill:#80ff80;stroke-width:0.256088"
       d="m 360.14589,12.454699 h 5.25309 v 0.49937 h -5.25309 z"
       id="path73" />
    <path
       style="fill:#80ff80;stroke-width:0.256088"
       d="m 352.0036,12.454699 h 5.25309 v 0.49937 h -5.25309 z"
       id="path74" />
    <path
       style="fill:#80ff80;stroke-width:0.256088"
       d="m 343.86131,12.454699 h 5.51574 v 0.49937 h -5.51574 z"
       id="path75" />
    <path
       style="fill:#80ff80;stroke-width:0.256088"
       d="m 335.71901,12.454699 h 5.51575 v 0.49937 h -5.51575 z"
       id="path76" />
    <path
       style="fill:#80ff80;stroke-width:0.256088"
       d="m 327.83938,12.454699 h 5.25309 v 0.49937 h -5.25309 z"
       id="path77" />
    <path
       style="fill:#80ff80;stroke-width:0.256088"
       d="m 319.69709,12.454699 h 5.51574 v 0.49937 h -5.51574 z"
       id="path78" />
    <path
       style="fill:#80ff80;stroke-width:0.256088"
       d="m 311.5548,12.454699 h 5.51574 v 0.49937 h -5.51574 z"
       id="path79" />
    <path
       style="fill:#80ff80;stroke-width:0.256088"
       d="m 432.9012,12.454699 h 5.25309 v 0.49937 h -5.25309 z"
       id="path80" />
    <path
       style="fill:#80ff80;stroke-width:0.256088"
       d="m 440.78083,12.454699 h 5.51575 v 0.49937 h -5.51575 z"
       id="path81" />
    <path
       style="fill:#80ff80;stroke-width:0.256088"
       d="m 448.92313,12.454699 h 5.51574 v 0.49937 h -5.51574 z"
       id="path82" />
    <path
       style="fill:#80ff80;stroke-width:0.256088"
       d="m 457.06542,12.454699 h 5.25309 v 0.49937 h -5.25309 z"
       id="path83" />
    <path
       style="fill:#80ff80;stroke-width:0.256088"
       d="m 465.20771,12.454699 h 5.25309 v 0.49937 h -5.25309 z"
       id="path84" />
    <path
       style="fill:#80ff80;stroke-width:0.256088"
       d="m 473.08734,12.454699 h 5.51575 v 0.49937 h -5.51575 z"
       id="path85" />
    <path
       style="fill:#80ff80;stroke-width:0.256088"
       d="m 481.22963,12.454699 h 5.51575 v 0.49937 h -5.51575 z"
       id="path86" />
    <path
       style="fill:#80ff80;stroke-width:0.256088"
       d="m 489.37192,12.454699 h 5.2531 v 0.49937 h -5.2531 z"
       id="path87" />
    <path
       style="fill:#80ff80;stroke-width:0.256088"
       d="m 497.51422,12.454699 h 5.25309 v 0.49937 h -5.25309 z"
       id="path88" />
    <path
       style="fill:#80ff80;stroke-width:0.256088"
       d="m 505.39385,12.454699 h 5.51575 v 0.49937 h -5.51575 z"
       id="path89" />
    <path
       style="fill:#80ff80;stroke-width:0.256088"
       d="m 513.53614,12.454699 h 5.51575 v 0.49937 h -5.51575 z"
       id="path90" />
    <path
       style="fill:#80ff80;stroke-width:0.256088"
       d="m 521.67843,12.454699 h 5.25309 v 0.49937 h -5.25309 z"
       id="path91" />
    <path
       style="fill:#80ff80;stroke-width:0.256088"
       d="m 529.82072,12.454699 h 5.25309 v 0.49937 h -5.25309 z"
       id="path92" />
    <path
       style="fill:#80ff80;stroke-width:0.256088"
       d="m 537.70036,12.454699 h 5.51575 v 0.49937 h -5.51575 z"
       id="path93" />
    <path
       style="fill:#80ff80;stroke-width:0.256088"
       d="m 545.84265,12.454699 h 5.51575 v 0.49937 h -5.51575 z"
       id="path94" />
    <path
       style="fill:#80ff80;stroke-width:0.256088"
       d="m 553.98494,12.454699 h 5.25309 v 0.49937 h -5.25309 z"
       id="path95" />
    <path
       style="fill:none;stroke:#ccccff;stroke-width:0.512176"
       d="M 553.98494,64.888769 V 12.454699"
       id="path96" />
    <path
       style="fill:none;stroke:#ccccff;stroke-width:0.512176"
       d="M 440.78083,64.888769 V 12.454699"
       id="path97" />
    <path
       style="fill:none;stroke:#ccccff;stroke-width:0.512176"
       d="M 448.92313,64.888769 V 12.454699"
       id="path98" />
    <path
       style="fill:none;stroke:#ccccff;stroke-width:0.512176"
       d="M 457.06542,64.888769 V 12.454699"
       id="path99" />
    <path
       style="fill:none;stroke:#ccccff;stroke-width:0.512176"
       d="M 465.20771,64.888769 V 12.454699"
       id="path100" />
    <path
       style="fill:none;stroke:#ccccff;stroke-width:0.512176"
       d="M 473.08734,64.888769 V 12.454699"
       id="path101" />
    <path
       style="fill:none;stroke:#ccccff;stroke-width:0.512176"
       d="M 481.22963,64.888769 V 12.454699"
       id="path102" />
    <path
       style="fill:none;stroke:#ccccff;stroke-width:0.512176"
       d="M 489.37192,64.888769 V 12.454699"
       id="path103" />
    <path
       style="fill:none;stroke:#ccccff;stroke-width:0.512176"
       d="M 497.51422,64.888769 V 12.454699"
       id="path104" />
    <path
       style="fill:none;stroke:#ccccff;stroke-width:0.512176"
       d="M 505.39385,64.888769 V 12.454699"
       id="path105" />
    <path
       style="fill:none;stroke:#ccccff;stroke-width:0.512176"
       d="M 513.53614,64.888769 V 12.454699"
       id="path106" />
    <path
       style="fill:none;stroke:#ccccff;stroke-width:0.512176"
       d="M 521.67843,64.888769 V 12.454699"
       id="path107" />
    <path
       style="fill:none;stroke:#ccccff;stroke-width:0.512176"
       d="M 529.82072,64.888769 V 12.454699"
       id="path108" />
    <path
       style="fill:none;stroke:#ccccff;stroke-width:0.512176"
       d="M 537.70036,64.888769 V 12.454699"
       id="path109" />
    <path
       style="fill:none;stroke:#ccccff;stroke-width:0.512176"
       d="M 545.84265,64.888769 V 12.454699"
       id="path110" />
    <path
       style="fill:none;stroke:#ccccff;stroke-width:0.512176"
       d="M 432.9012,64.888769 V 12.454699"
       id="path111" />
    <path
       style="fill:none;stroke:#ccccff;stroke-width:0.512176"
       d="M 424.75891,64.888769 V 12.454699"
       id="path112" />
    <path
       style="fill:none;stroke:#ccccff;stroke-width:0.512176"
       d="M 416.61662,64.888769 V 12.454699"
       id="path113" />
    <path
       style="fill:none;stroke:#ccccff;stroke-width:0.512176"
       d="M 408.47433,64.888769 V 12.454699"
       id="path114" />
    <path
       style="fill:none;stroke:#ccccff;stroke-width:0.512176"
       d="M 400.33203,64.888769 V 12.454699"
       id="path115" />
    <path
       style="fill:none;stroke:#ccccff;stroke-width:0.512176"
       d="M 392.4524,64.888769 V 12.454699"
       id="path116" />
    <path
       style="fill:none;stroke:#ccccff;stroke-width:0.512176"
       d="M 384.3101,64.888769 V 12.454699"
       id="path117" />
    <path
       style="fill:none;stroke:#ccccff;stroke-width:0.512176"
       d="M 376.16781,64.888769 V 12.454699"
       id="path118" />
    <path
       style="fill:none;stroke:#ccccff;stroke-width:0.512176"
       d="M 368.02552,64.888769 V 12.454699"
       id="path119" />
    <path
       style="fill:none;stroke:#ccccff;stroke-width:0.512176"
       d="M 360.14589,64.888769 V 12.454699"
       id="path120" />
    <path
       style="fill:none;stroke:#ccccff;stroke-width:0.512176"
       d="M 352.0036,64.888769 V 12.454699"
       id="path121" />
    <path
       style="fill:none;stroke:#ccccff;stroke-width:0.512176"
       d="M 343.86131,64.888769 V 12.454699"
       id="path122" />
    <path
       style="fill:none;stroke:#ccccff;stroke-width:0.512176"
       d="M 335.71901,64.888769 V 12.454699"
       id="path123" />
    <path
       style="fill:none;stroke:#ccccff;stroke-width:0.512176"
       d="M 327.83938,64.888769 V 12.454699"
       id="path124" />
    <path
       style="fill:none;stroke:#ccccff;stroke-width:0.512176"
       d="M 319.69709,64.888769 V 12.454699"
       id="path125" />
    <path
       style="fill:none;stroke:#ccccff;stroke-width:0.512176"
       d="M 311.5548,64.888769 V 12.454699"
       id="path126" />
  </g>
</svg>
